{
    "asset" : {
        "generator" : "Khronos glTF Blender I/O v3.2.43",
        "version" : "2.0"
    },
    "scene" : 0,
    "scenes" : [
        {
            "name" : "Scene",
            "nodes" : [
                3
            ]
        }
    ],
    "nodes" : [
        {
            "mesh" : 0,
            "name" : "Body"
        },
        {
            "mesh" : 1,
            "name" : "Engine",
            "translation" : [
                0,
                0,
                0.04792052134871483
            ]
        },
        {
            "mesh" : 2,
            "name" : "Head"
        },
        {
            "children" : [
                0,
                1,
                2
            ],
            "mesh" : 3,
            "name" : "Capsule",
            "rotation" : [
                0.7071068286895752,
                0,
                0,
                0.7071068286895752
            ],
            "scale" : [
                0.20359915494918823,
                0.20359915494918823,
                0.20359915494918823
            ]
        }
    ],
    "materials" : [
        {
            "doubleSided" : true,
            "name" : "Material.005",
            "pbrMetallicRoughness" : {
                "baseColorTexture" : {
                    "index" : 0
                },
                "metallicFactor" : 0,
                "roughnessFactor" : 0.5
            }
        },
        {
            "doubleSided" : true,
            "name" : "Material.006",
            "pbrMetallicRoughness" : {
                "baseColorTexture" : {
                    "index" : 1
                },
                "metallicRoughnessTexture" : {
                    "index" : 2
                }
            }
        },
        {
            "doubleSided" : true,
            "name" : "Material.007",
            "pbrMetallicRoughness" : {
                "baseColorTexture" : {
                    "index" : 3
                },
                "metallicRoughnessTexture" : {
                    "index" : 4
                }
            }
        },
        {
            "doubleSided" : true,
            "name" : "Material.004",
            "pbrMetallicRoughness" : {
                "baseColorTexture" : {
                    "index" : 5
                },
                "metallicFactor" : 0,
                "roughnessFactor" : 0.5
            }
        }
    ],
    "meshes" : [
        {
            "name" : "Cylinder",
            "primitives" : [
                {
                    "attributes" : {
                        "POSITION" : 0,
                        "NORMAL" : 1,
                        "TEXCOORD_0" : 2
                    },
                    "indices" : 3,
                    "material" : 0
                }
            ]
        },
        {
            "name" : "Cylinder.001",
            "primitives" : [
                {
                    "attributes" : {
                        "POSITION" : 4,
                        "NORMAL" : 5,
                        "TEXCOORD_0" : 6
                    },
                    "indices" : 7,
                    "material" : 1
                }
            ]
        },
        {
            "name" : "Cylinder.003",
            "primitives" : [
                {
                    "attributes" : {
                        "POSITION" : 8,
                        "NORMAL" : 9,
                        "TEXCOORD_0" : 10
                    },
                    "indices" : 11,
                    "material" : 2
                }
            ]
        },
        {
            "name" : "Cylinder.002",
            "primitives" : [
                {
                    "attributes" : {
                        "POSITION" : 12,
                        "NORMAL" : 13,
                        "TEXCOORD_0" : 14
                    },
                    "indices" : 15,
                    "material" : 3
                }
            ]
        }
    ],
    "textures" : [
        {
            "sampler" : 0,
            "source" : 0
        },
        {
            "sampler" : 0,
            "source" : 1
        },
        {
            "sampler" : 0,
            "source" : 2
        },
        {
            "sampler" : 0,
            "source" : 1
        },
        {
            "sampler" : 0,
            "source" : 2
        },
        {
            "sampler" : 0,
            "source" : 3
        }
    ],
    "images" : [
        {
            "mimeType" : "image/png",
            "name" : "Flivver_BaseColor_Grey",
            "uri" : "textures/Flivver_BaseColor_Grey.png"
        },
        {
            "mimeType" : "image/png",
            "name" : "Flivver_BaseColor_DarkGrey",
            "uri" : "textures/Flivver_BaseColor_DarkGrey.png"
        },
        {
            "mimeType" : "image/png",
            "name" : "Flivver_MetallicRoughness",
            "uri" : "textures/Flivver_MetallicRoughness.png"
        },
        {
            "mimeType" : "image/png",
            "name" : "Flivver_BaseColor_LightGrey",
            "uri" : "textures/Flivver_BaseColor_LightGrey.png"
        }
    ],
    "accessors" : [
        {
            "bufferView" : 0,
            "componentType" : 5126,
            "count" : 1000,
            "max" : [
                11.522939682006836,
                7.12958288192749,
                1.0790557861328125
            ],
            "min" : [
                -11.522947311401367,
                -10.585003852844238,
                -4.1422953605651855
            ],
            "type" : "VEC3"
        },
        {
            "bufferView" : 1,
            "componentType" : 5126,
            "count" : 1000,
            "type" : "VEC3"
        },
        {
            "bufferView" : 2,
            "componentType" : 5126,
            "count" : 1000,
            "type" : "VEC2"
        },
        {
            "bufferView" : 3,
            "componentType" : 5123,
            "count" : 1620,
            "type" : "SCALAR"
        },
        {
            "bufferView" : 4,
            "componentType" : 5126,
            "count" : 1595,
            "max" : [
                5.053921699523926,
                6.416345596313477,
                1.2741894721984863
            ],
            "min" : [
                -5.053928375244141,
                1.1310656070709229,
                -0.6361865997314453
            ],
            "type" : "VEC3"
        },
        {
            "bufferView" : 5,
            "componentType" : 5126,
            "count" : 1595,
            "type" : "VEC3"
        },
        {
            "bufferView" : 6,
            "componentType" : 5126,
            "count" : 1595,
            "type" : "VEC2"
        },
        {
            "bufferView" : 7,
            "componentType" : 5123,
            "count" : 5352,
            "type" : "SCALAR"
        },
        {
            "bufferView" : 8,
            "componentType" : 5126,
            "count" : 736,
            "max" : [
                0.9202829599380493,
                0.24833154678344727,
                1.2076711654663086
            ],
            "min" : [
                -0.9202894568443298,
                -1.1834893226623535,
                -0.6329011917114258
            ],
            "type" : "VEC3"
        },
        {
            "bufferView" : 9,
            "componentType" : 5126,
            "count" : 736,
            "type" : "VEC3"
        },
        {
            "bufferView" : 10,
            "componentType" : 5126,
            "count" : 736,
            "type" : "VEC2"
        },
        {
            "bufferView" : 11,
            "componentType" : 5123,
            "count" : 1920,
            "type" : "SCALAR"
        },
        {
            "bufferView" : 12,
            "componentType" : 5126,
            "count" : 544,
            "max" : [
                1.2308107614517212,
                5.618147373199463,
                1.5181994438171387
            ],
            "min" : [
                -1.230817437171936,
                -1.7557182312011719,
                -0.9434289932250977
            ],
            "type" : "VEC3"
        },
        {
            "bufferView" : 13,
            "componentType" : 5126,
            "count" : 544,
            "type" : "VEC3"
        },
        {
            "bufferView" : 14,
            "componentType" : 5126,
            "count" : 544,
            "type" : "VEC2"
        },
        {
            "bufferView" : 15,
            "componentType" : 5123,
            "count" : 2292,
            "type" : "SCALAR"
        }
    ],
    "bufferViews" : [
        {
            "buffer" : 0,
            "byteLength" : 12000,
            "byteOffset" : 0
        },
        {
            "buffer" : 0,
            "byteLength" : 12000,
            "byteOffset" : 12000
        },
        {
            "buffer" : 0,
            "byteLength" : 8000,
            "byteOffset" : 24000
        },
        {
            "buffer" : 0,
            "byteLength" : 3240,
            "byteOffset" : 32000
        },
        {
            "buffer" : 0,
            "byteLength" : 19140,
            "byteOffset" : 35240
        },
        {
            "buffer" : 0,
            "byteLength" : 19140,
            "byteOffset" : 54380
        },
        {
            "buffer" : 0,
            "byteLength" : 12760,
            "byteOffset" : 73520
        },
        {
            "buffer" : 0,
            "byteLength" : 10704,
            "byteOffset" : 86280
        },
        {
            "buffer" : 0,
            "byteLength" : 8832,
            "byteOffset" : 96984
        },
        {
            "buffer" : 0,
            "byteLength" : 8832,
            "byteOffset" : 105816
        },
        {
            "buffer" : 0,
            "byteLength" : 5888,
            "byteOffset" : 114648
        },
        {
            "buffer" : 0,
            "byteLength" : 3840,
            "byteOffset" : 120536
        },
        {
            "buffer" : 0,
            "byteLength" : 6528,
            "byteOffset" : 124376
        },
        {
            "buffer" : 0,
            "byteLength" : 6528,
            "byteOffset" : 130904
        },
        {
            "buffer" : 0,
            "byteLength" : 4352,
            "byteOffset" : 137432
        },
        {
            "buffer" : 0,
            "byteLength" : 4584,
            "byteOffset" : 141784
        }
    ],
    "samplers" : [
        {
            "magFilter" : 9729,
            "minFilter" : 9987
        }
    ],
    "buffers" : [
        {
            "byteLength" : 146368,
            "uri" : "Flivver.bin"
        }
    ]
}
