{
    "asset" : {
        "generator" : "Khronos glTF Blender I/O v3.2.43",
        "version" : "2.0"
    },
    "scene" : 0,
    "scenes" : [
        {
            "name" : "Scene",
            "nodes" : [
                0
            ]
        }
    ],
    "nodes" : [
        {
            "mesh" : 0,
            "name" : "Cone"
        }
    ],
    "materials" : [
        {
            "doubleSided" : true,
            "name" : "Material.001",
            "pbrMetallicRoughness" : {
                "baseColorFactor" : [
                    0.8000000715255737,
                    0.0936916321516037,
                    0.0936916321516037,
                    1
                ],
                "metallicFactor" : 0,
                "roughnessFactor" : 0.5
            }
        },
        {
            "doubleSided" : true,
            "name" : "Material.002",
            "pbrMetallicRoughness" : {
                "baseColorFactor" : [
                    0.23395118117332458,
                    0.36952877044677734,
                    0.8000000715255737,
                    1
                ],
                "metallicFactor" : 0,
                "roughnessFactor" : 0.5
            }
        }
    ],
    "meshes" : [
        {
            "name" : "Cone",
            "primitives" : [
                {
                    "attributes" : {
                        "POSITION" : 0,
                        "NORMAL" : 1,
                        "TEXCOORD_0" : 2
                    },
                    "indices" : 3,
                    "material" : 0
                },
                {
                    "attributes" : {
                        "POSITION" : 4,
                        "NORMAL" : 5,
                        "TEXCOORD_0" : 6
                    },
                    "indices" : 7,
                    "material" : 1
                }
            ]
        }
    ],
    "accessors" : [
        {
            "bufferView" : 0,
            "componentType" : 5126,
            "count" : 13,
            "max" : [
                1,
                1.3325999975204468,
                1
            ],
            "min" : [
                -1,
                -0.000599980354309082,
                -1
            ],
            "type" : "VEC3"
        },
        {
            "bufferView" : 1,
            "componentType" : 5126,
            "count" : 13,
            "type" : "VEC3"
        },
        {
            "bufferView" : 2,
            "componentType" : 5126,
            "count" : 13,
            "type" : "VEC2"
        },
        {
            "bufferView" : 3,
            "componentType" : 5123,
            "count" : 15,
            "type" : "SCALAR"
        },
        {
            "bufferView" : 4,
            "componentType" : 5126,
            "count" : 3,
            "max" : [
                0,
                1.3325999975204468,
                1
            ],
            "min" : [
                -1,
                -0.000599980354309082,
                -1.1924880638503055e-08
            ],
            "type" : "VEC3"
        },
        {
            "bufferView" : 5,
            "componentType" : 5126,
            "count" : 3,
            "type" : "VEC3"
        },
        {
            "bufferView" : 6,
            "componentType" : 5126,
            "count" : 3,
            "type" : "VEC2"
        },
        {
            "bufferView" : 7,
            "componentType" : 5123,
            "count" : 3,
            "type" : "SCALAR"
        }
    ],
    "bufferViews" : [
        {
            "buffer" : 0,
            "byteLength" : 156,
            "byteOffset" : 0
        },
        {
            "buffer" : 0,
            "byteLength" : 156,
            "byteOffset" : 156
        },
        {
            "buffer" : 0,
            "byteLength" : 104,
            "byteOffset" : 312
        },
        {
            "buffer" : 0,
            "byteLength" : 30,
            "byteOffset" : 416
        },
        {
            "buffer" : 0,
            "byteLength" : 36,
            "byteOffset" : 448
        },
        {
            "buffer" : 0,
            "byteLength" : 36,
            "byteOffset" : 484
        },
        {
            "buffer" : 0,
            "byteLength" : 24,
            "byteOffset" : 520
        },
        {
            "buffer" : 0,
            "byteLength" : 6,
            "byteOffset" : 544
        }
    ],
    "buffers" : [
        {
            "byteLength" : 552,
            "uri" : "color.bin"
        }
    ]
}
