{
  "accessors": [
    {
      "bufferView": 2,
      "componentType": 5126,
      "count": 22,
      "max": [
        5.30305814743042,
        3.044142007827759,
        2.228023052215576
      ],
      "min": [
        -0.04487200081348419,
        0.1229029968380928,
        -0.3719770014286041
      ],
      "type": "VEC3"
    },
    {
      "bufferView": 2,
      "byteOffset": 264,
      "componentType": 5126,
      "count": 22,
      "max": [
        0.0,
        0.0,
        1.0
      ],
      "min": [
        0.0,
        0.0,
        -1.0
      ],
      "type": "VEC3"
    },
    {
      "bufferView": 3,
      "componentType": 5126,
      "count": 22,
      "max": [
        4.44120678366744e-06,
        1.0,
        0.0,
        1.0
      ],
      "min": [
        -3.438530256971717e-06,
        -1.0,
        0.0,
        1.0
      ],
      "type": "VEC4"
    },
    {
      "bufferView": 1,
      "componentType": 5126,
      "count": 22,
      "max": [
        0.9998649954795837,
        0.9245210289955139
      ],
      "min": [
        0.00013499999477062374,
        0.00013499999477062374
      ],
      "type": "VEC2"
    },
    {
      "bufferView": 0,
      "componentType": 5125,
      "count": 54,
      "type": "SCALAR"
    },
    {
      "bufferView": 2,
      "byteOffset": 528,
      "componentType": 5126,
      "count": 1107,
      "max": [
        5.30305814743042,
        3.066854953765869,
        2.228023052215576
      ],
      "min": [
        -0.04487200081348419,
        0.1229029968380928,
        -0.3719770014286041
      ],
      "type": "VEC3"
    },
    {
      "bufferView": 2,
      "byteOffset": 13812,
      "componentType": 5126,
      "count": 1107,
      "max": [
        1.0,
        0.9848158359527588,
        1.0
      ],
      "min": [
        -1.0,
        -1.0,
        -1.0
      ],
      "type": "VEC3"
    },
    {
      "bufferView": 3,
      "byteOffset": 352,
      "componentType": 5126,
      "count": 1107,
      "max": [
        0.9998174905776978,
        1.0,
        0.998385488986969,
        1.0
      ],
      "min": [
        -0.9998176693916321,
        -0.9999091625213623,
        -1.0,
        -1.0
      ],
      "type": "VEC4"
    },
    {
      "bufferView": 1,
      "byteOffset": 176,
      "componentType": 5126,
      "count": 1107,
      "max": [
        0.9907670021057129,
        0.9975069761276245
      ],
      "min": [
        0.0024250000715255737,
        0.0024900001008063555
      ],
      "type": "VEC2"
    },
    {
      "bufferView": 0,
      "byteOffset": 216,
      "componentType": 5125,
      "count": 5184,
      "type": "SCALAR"
    },
    {
      "bufferView": 2,
      "byteOffset": 27096,
      "componentType": 5126,
      "count": 7,
      "max": [
        0.23229199647903442,
        1.0604360103607178,
        2.1321849822998047
      ],
      "min": [
        0.11312799900770187,
        1.039423942565918,
        2.0445690155029297
      ],
      "type": "VEC3"
    },
    {
      "bufferView": 0,
      "byteOffset": 20952,
      "componentType": 5125,
      "count": 12,
      "type": "SCALAR"
    },
    {
      "bufferView": 2,
      "byteOffset": 27180,
      "componentType": 5126,
      "count": 60,
      "max": [
        5.175131797790527,
        3.03208589553833,
        2.0445690155029297
      ],
      "min": [
        0.08305499702692032,
        0.8204489946365356,
        1.5614409446716309
      ],
      "type": "VEC3"
    },
    {
      "bufferView": 2,
      "byteOffset": 27900,
      "componentType": 5126,
      "count": 60,
      "max": [
        0.9991551041603088,
        -0.04109815135598183,
        0.13310369849205017
      ],
      "min": [
        -0.9991551041603088,
        -0.9911071062088013,
        -0.13310369849205017
      ],
      "type": "VEC3"
    },
    {
      "bufferView": 1,
      "byteOffset": 9032,
      "componentType": 5126,
      "count": 60,
      "max": [
        0.9821959733963013,
        0.1379310041666031
      ],
      "min": [
        0.3878749907016754,
        0.002495999913662672
      ],
      "type": "VEC2"
    },
    {
      "bufferView": 0,
      "byteOffset": 21000,
      "componentType": 5125,
      "count": 150,
      "type": "SCALAR"
    },
    {
      "bufferView": 2,
      "byteOffset": 28620,
      "componentType": 5126,
      "count": 1824,
      "max": [
        5.544587135314941,
        2.861301898956299,
        2.289141893386841
      ],
      "min": [
        -0.2863999903202057,
        -0.3937680125236511,
        -0.3719770014286041
      ],
      "type": "VEC3"
    },
    {
      "bufferView": 2,
      "byteOffset": 50508,
      "componentType": 5126,
      "count": 1824,
      "max": [
        1.0,
        1.0,
        0.9836158752441406
      ],
      "min": [
        -1.0,
        -1.0,
        -0.8419181704521179
      ],
      "type": "VEC3"
    },
    {
      "bufferView": 3,
      "byteOffset": 18064,
      "componentType": 5126,
      "count": 1824,
      "max": [
        1.0,
        1.0,
        1.0,
        1.0
      ],
      "min": [
        -1.0,
        -1.0,
        -1.0,
        1.0
      ],
      "type": "VEC4"
    },
    {
      "bufferView": 1,
      "byteOffset": 9512,
      "componentType": 5126,
      "count": 1824,
      "max": [
        0.9620090126991272,
        0.9977650046348572
      ],
      "min": [
        0.002234000014141202,
        0.002234000014141202
      ],
      "type": "VEC2"
    },
    {
      "bufferView": 0,
      "byteOffset": 21600,
      "componentType": 5125,
      "count": 8604,
      "type": "SCALAR"
    }
  ],
  "asset": {
    "extras": {
      "author": "Batuhan13 (https://sketchfab.com/Batuhan13)",
      "license": "CC-BY-4.0 (http://creativecommons.org/licenses/by/4.0/)",
      "source": "https://sketchfab.com/3d-models/saul-goodmans-office-9f0a1c06a07b46eab009c92ea151d9ee",
      "title": "Saul Goodman's office"
    },
    "generator": "Sketchfab-12.65.0",
    "version": "2.0"
  },
  "bufferViews": [
    {
      "buffer": 0,
      "byteLength": 56016,
      "name": "floatBufferViews",
      "target": 34963
    },
    {
      "buffer": 0,
      "byteLength": 24104,
      "byteOffset": 56016,
      "byteStride": 8,
      "name": "floatBufferViews",
      "target": 34962
    },
    {
      "buffer": 0,
      "byteLength": 72396,
      "byteOffset": 80120,
      "byteStride": 12,
      "name": "floatBufferViews",
      "target": 34962
    },
    {
      "buffer": 0,
      "byteLength": 47248,
      "byteOffset": 152516,
      "byteStride": 16,
      "name": "floatBufferViews",
      "target": 34962
    }
  ],
  "buffers": [
    {
      "byteLength": 199764,
      "uri": "scene.bin"
    }
  ],
  "images": [
    {
      "uri": "textures/Top-Bot_baseColor.png"
    },
    {
      "uri": "textures/Top-Bot_normal.png"
    },
    {
      "uri": "textures/backwall_baseColor.png"
    },
    {
      "uri": "textures/backwall_normal.png"
    },
    {
      "uri": "textures/sutun_baseColor.png"
    },
    {
      "uri": "textures/sutun_metallicRoughness.png"
    },
    {
      "uri": "textures/sutun_normal.png"
    }
  ],
  "materials": [
    {
      "doubleSided": true,
      "name": "Top-Bot",
      "normalTexture": {
        "index": 1
      },
      "pbrMetallicRoughness": {
        "baseColorTexture": {
          "index": 0
        },
        "metallicFactor": 0.0,
        "roughnessFactor": 0.5653030395507812
      }
    },
    {
      "doubleSided": true,
      "name": "backwall",
      "normalTexture": {
        "index": 3
      },
      "pbrMetallicRoughness": {
        "baseColorTexture": {
          "index": 2
        },
        "metallicFactor": 0.0
      }
    },
    {
      "doubleSided": true,
      "emissiveFactor": [
        1.0,
        1.0,
        1.0
      ],
      "name": "emission",
      "pbrMetallicRoughness": {
        "metallicFactor": 0.0,
        "roughnessFactor": 0.6
      }
    },
    {
      "doubleSided": true,
      "name": "sutun",
      "normalTexture": {
        "index": 6
      },
      "pbrMetallicRoughness": {
        "baseColorTexture": {
          "index": 4
        },
        "metallicFactor": 0.0,
        "metallicRoughnessTexture": {
          "index": 5
        },
        "roughnessFactor": 0.0
      }
    }
  ],
  "meshes": [
    {
      "name": "Object_0",
      "primitives": [
        {
          "attributes": {
            "NORMAL": 1,
            "POSITION": 0,
            "TANGENT": 2,
            "TEXCOORD_0": 3
          },
          "indices": 4,
          "material": 0,
          "mode": 4
        }
      ]
    },
    {
      "name": "Object_1",
      "primitives": [
        {
          "attributes": {
            "NORMAL": 6,
            "POSITION": 5,
            "TANGENT": 7,
            "TEXCOORD_0": 8
          },
          "indices": 9,
          "material": 1,
          "mode": 4
        }
      ]
    },
    {
      "name": "Object_2",
      "primitives": [
        {
          "attributes": {
            "POSITION": 10
          },
          "indices": 11,
          "material": 2,
          "mode": 1
        }
      ]
    },
    {
      "name": "Object_3",
      "primitives": [
        {
          "attributes": {
            "NORMAL": 13,
            "POSITION": 12,
            "TEXCOORD_0": 14
          },
          "indices": 15,
          "material": 2,
          "mode": 4
        }
      ]
    },
    {
      "name": "Object_4",
      "primitives": [
        {
          "attributes": {
            "NORMAL": 17,
            "POSITION": 16,
            "TANGENT": 18,
            "TEXCOORD_0": 19
          },
          "indices": 20,
          "material": 3,
          "mode": 4
        }
      ]
    }
  ],
  "nodes": [
    {
      "children": [
        1
      ],
      "matrix": [
        1.0,
        0.0,
        0.0,
        0.0,
        0.0,
        2.220446049250313e-16,
        -1.0,
        0.0,
        0.0,
        1.0,
        2.220446049250313e-16,
        0.0,
        0.0,
        0.0,
        0.0,
        1.0
      ],
      "name": "Sketchfab_model"
    },
    {
      "children": [
        2,
        3,
        4,
        5,
        6
      ],
      "name": "dec793b47e2a4c77a031813b012e078f.obj.cleaner.materialmerger.gles"
    },
    {
      "mesh": 0,
      "name": "Object_2"
    },
    {
      "mesh": 1,
      "name": "Object_3"
    },
    {
      "mesh": 2,
      "name": "Object_4"
    },
    {
      "mesh": 3,
      "name": "Object_5"
    },
    {
      "mesh": 4,
      "name": "Object_6"
    }
  ],
  "samplers": [
    {
      "magFilter": 9729,
      "minFilter": 9987,
      "wrapS": 10497,
      "wrapT": 10497
    }
  ],
  "scene": 0,
  "scenes": [
    {
      "name": "Sketchfab_Scene",
      "nodes": [
        0
      ]
    }
  ],
  "textures": [
    {
      "sampler": 0,
      "source": 0
    },
    {
      "sampler": 0,
      "source": 1
    },
    {
      "sampler": 0,
      "source": 2
    },
    {
      "sampler": 0,
      "source": 3
    },
    {
      "sampler": 0,
      "source": 4
    },
    {
      "sampler": 0,
      "source": 5
    },
    {
      "sampler": 0,
      "source": 6
    }
  ]
}
