# Blender 3.2.1
# www.blender.org
mtllib cubeTexture2.mtl
o Cube
v -1.000000 -1.000000 1.000000
v -1.000000 1.000000 1.000000
v -1.000000 -1.000000 -1.000000
v -1.000000 1.000000 -1.000000
v 1.000000 -1.000000 1.000000
v 1.000000 1.000000 1.000000
v 1.000000 -1.000000 -1.000000
v 1.000000 1.000000 -1.000000
vn -1.0000 -0.0000 -0.0000
vn -0.0000 -0.0000 -1.0000
vn 1.0000 -0.0000 -0.0000
vn -0.0000 -0.0000 1.0000
vn -0.0000 -1.0000 -0.0000
vn -0.0000 1.0000 -0.0000
vt -0.006785 -2.031600
vt -0.006785 2.022679
vt -1.020355 1.009109
vt 1.006785 -2.031600
vt 1.006785 2.022679
vt 2.020355 1.009109
vt -1.020355 -0.004461
vt -0.006785 -1.018030
vt 1.006785 -1.018030
vt 2.020355 -0.004461
vt -0.006785 1.009109
vt 1.006785 1.009109
vt -0.006785 -0.004461
vt 1.006785 -0.004461
s 0
usemtl Material.001
f 2/4/1 3/8/1 1/1/1
f 4/9/2 7/13/2 3/8/2
f 8/14/3 5/11/3 7/13/3
f 6/12/4 1/2/4 5/11/4
f 7/13/5 1/3/5 3/7/5
f 2/4/1 4/9/1 3/8/1
f 4/9/2 8/14/2 7/13/2
f 8/14/3 6/12/3 5/11/3
f 6/12/4 2/5/4 1/2/4
f 7/13/5 5/11/5 1/3/5
usemtl Material.002
f 4/10/6 6/12/6 8/14/6
f 4/10/6 2/6/6 6/12/6
